HIERARCHY
ROOT Hips
{
 OFFSET 0.000000 0.000000 0.000000
 CHANNELS 6 Xposition Yposition Zposition Yrotation Xrotation Zrotation
 JOINT Chest
 {
  OFFSET 0.000000 9.588913 -0.003946
  CHANNELS 3 Yrotation Xrotation Zrotation
  JOINT Chest2
  {
   OFFSET 0.000000 9.541882 0.008053
   CHANNELS 3 Yrotation Xrotation Zrotation
   JOINT Chest3
   {
    OFFSET 0.000000 9.501360 0.000000
    CHANNELS 3 Yrotation Xrotation Zrotation
    JOINT Chest4
    {
     OFFSET 0.000000 9.491660 0.000000
     CHANNELS 3 Yrotation Xrotation Zrotation
     JOINT Neck
     {
      OFFSET 0.000000 14.331917 0.000000
      CHANNELS 3 Yrotation Xrotation Zrotation
      JOINT Head
      {
       OFFSET 0.000000 8.884799 0.017034
       CHANNELS 3 Yrotation Xrotation Zrotation
       End Site
       {
        OFFSET 0.000000 16.896195 0.008993
       }
      }
     }
     JOINT RightCollar
     {
      OFFSET -2.923010 9.499495 0.000000
      CHANNELS 3 Yrotation Xrotation Zrotation
      JOINT RightShoulder
      {
       OFFSET -13.795216 0.000000 0.000000
       CHANNELS 3 Yrotation Xrotation Zrotation
       JOINT RightElbow
       {
        OFFSET -30.272209 0.000000 0.000000
        CHANNELS 3 Yrotation Xrotation Zrotation
        JOINT RightWrist
        {
         OFFSET -24.478199 0.000000 0.000000
         CHANNELS 3 Yrotation Xrotation Zrotation
         End Site
         {
          OFFSET -18.090752 0.000000 0.000000
         }
        }
       }
      }
     }
     JOINT LeftCollar
     {
      OFFSET 2.923010 9.499495 0.000000
      CHANNELS 3 Yrotation Xrotation Zrotation
      JOINT LeftShoulder
      {
       OFFSET 13.795216 0.000000 0.000000
       CHANNELS 3 Yrotation Xrotation Zrotation
       JOINT LeftElbow
       {
        OFFSET 30.272209 0.000000 0.000000
        CHANNELS 3 Yrotation Xrotation Zrotation
        JOINT LeftWrist
        {
         OFFSET 24.478199 0.000000 0.000000
         CHANNELS 3 Yrotation Xrotation Zrotation
         End Site
         {
          OFFSET 18.090752 0.000000 0.000000
         }
        }
       }
      }
     }
    }
   }
  }
 }
 JOINT RightHip
 {
  OFFSET -7.826875 0.019532 0.001973
  CHANNELS 3 Yrotation Xrotation Zrotation
  JOINT RightKnee
  {
   OFFSET 0.000000 -40.546152 -0.001885
   CHANNELS 3 Yrotation Xrotation Zrotation
   JOINT RightAnkle
   {
    OFFSET 0.000000 -39.417092 -0.003189
    CHANNELS 3 Yrotation Xrotation Zrotation
    JOINT RightToe
    {
     OFFSET 0.000000 -7.579396 17.243563
     CHANNELS 3 Yrotation Xrotation Zrotation
     End Site
     {
      OFFSET 0.000000 -1.500329 6.694466
     }
    }
   }
  }
 }
 JOINT LeftHip
 {
  OFFSET 7.826875 0.019532 0.001973
  CHANNELS 3 Yrotation Xrotation Zrotation
  JOINT LeftKnee
  {
   OFFSET 0.000000 -40.546152 -0.001885
   CHANNELS 3 Yrotation Xrotation Zrotation
   JOINT LeftAnkle
   {
    OFFSET 0.000000 -39.417092 -0.003189
    CHANNELS 3 Yrotation Xrotation Zrotation
    JOINT LeftToe
    {
     OFFSET 0.000000 -7.579396 17.243563
     CHANNELS 3 Yrotation Xrotation Zrotation
     End Site
     {
      OFFSET 0.000000 -1.500329 6.694466
     }
    }
   }
  }
 }
}
MOTION
Frames: 6
Frame Time: 0.008333
0.000000 87.345680 0.000000 0.000000 -5.767889 0.000000 0.000000 11.653876 0.000000 0.000000 -5.885988 0.000000 0.000000 -0.000000 0.000000 0.000000 -0.000000 0.000000 0.000000 12.528808 0.000000 0.000000 0.711711 0.000000 0.000000 -0.000000 0.000000 0.000000 -0.000000 0.000000 2.309063 -0.000000 0.000000 -2.309063 -0.000000 -0.000000 0.000000 -0.000000 0.000000 0.000000 0.000000 0.000000 -2.309063 0.000000 0.000000 2.309063 -0.000000 0.000000 0.000000 8.520374 0.000000 0.000000 1.905768 0.000000 -0.000000 -4.658254 0.000000 0.000000 -0.000000 0.000000 0.000000 8.520374 0.000000 0.000000 1.905768 0.000000 -0.000000 -4.658254 0.000000 0.000000 -0.000000 0.000000
-1.879270 51.109155 -25.325747 43.680780 -35.208205 -3.573072 -0.214144 14.229337 2.439273 -0.171501 8.122981 1.376569 -0.183956 10.154185 1.721232 -0.171501 8.122981 1.376569 -1.492531 18.137244 -5.176669 -0.408668 -6.488164 -5.192994 -1.225235 2.637860 -4.194488 9.668687 -1.199888 83.433072 65.827937 -7.737848 12.107231 -5.692478 -6.996099 -5.818849 16.789895 2.997998 0.087452 0.025777 -0.724924 -83.375508 -56.668707 -1.194300 -40.739566 -10.259086 1.154097 21.269683 -18.772025 -45.203778 13.076369 -122.548992 68.344174 -134.911892 -7.151196 -20.226093 7.574948 0.033970 0.096915 0.019091 17.877545 -47.594491 -10.054695 128.408452 66.323985 140.670969 -1.980907 -21.435408 -1.361172 -0.065530 -0.035394 -0.024394
-1.881560 51.108084 -25.324659 43.674470 -35.206235 -3.572577 -0.213515 14.228622 2.440036 -0.172289 8.123058 1.376203 -0.184951 10.154284 1.720755 -0.172289 8.123058 1.376203 -1.459532 18.143909 -5.172598 -0.374323 -6.480979 -5.196168 -1.222044 2.641988 -4.195174 9.682424 -1.197185 83.426776 65.837587 -7.743608 12.099793 -5.694853 -6.995985 -5.814194 16.800089 3.003855 0.085037 0.032657 -0.724450 -83.370035 -56.677957 -1.202226 -40.744923 -10.254157 1.162812 21.262149 -18.771082 -45.209506 13.084914 -122.547097 68.338516 -134.906961 -7.150345 -20.220269 7.571093 0.034553 0.093388 0.019344 17.886032 -47.599942 -10.054670 128.410136 66.319296 140.676816 -1.985967 -21.437364 -1.362092 -0.065558 -0.036976 -0.023664
-1.884175 51.106654 -25.323887 43.667120 -35.201671 -3.570513 -0.212794 14.225555 2.439464 -0.173550 8.122779 1.375160 -0.186555 10.153940 1.719419 -0.173550 8.122779 1.375160 -1.427274 18.149531 -5.167080 -0.341094 -6.475015 -5.197575 -1.219750 2.646535 -4.192965 9.697931 -1.194585 83.417761 65.845036 -7.751501 12.095281 -5.694828 -6.994602 -5.811435 16.813700 3.010449 0.086459 0.040895 -0.726103 -83.367860 -56.682251 -1.209077 -40.752845 -10.250703 1.171929 21.250527 -18.770714 -45.218946 13.092872 -122.544021 68.333064 -134.904210 -7.137054 -20.214086 7.564528 0.037827 0.089173 0.020279 17.894266 -47.606731 -10.056046 128.415131 66.318012 140.683018 -1.987426 -21.440193 -1.361341 -0.067515 -0.036618 -0.024186
-1.886772 51.105232 -25.323211 43.662378 -35.197151 -3.568971 -0.213635 14.223500 2.438621 -0.175671 8.122521 1.374381 -0.189233 10.153625 1.718395 -0.175671 8.122521 1.374381 -1.397351 18.153400 -5.161135 -0.310455 -6.471006 -5.197961 -1.217810 2.649593 -4.193125 9.710026 -1.191455 83.409534 65.850770 -7.758436 12.097106 -5.692289 -6.991368 -5.811476 16.829642 3.016869 0.086684 0.047794 -0.729438 -83.369426 -56.683486 -1.215682 -40.759320 -10.246257 1.183053 21.239401 -18.772661 -45.227598 13.099145 -122.539195 68.327512 -134.900498 -7.123920 -20.209574 7.559917 0.039380 0.085926 0.019866 17.897652 -47.612936 -10.055285 128.425469 66.318960 140.692344 -1.989951 -21.443818 -1.360022 -0.068316 -0.035428 -0.024608
-1.889193 51.104213 -25.322235 43.659856 -35.195572 -3.568992 -0.213335 14.224501 2.438628 -0.177460 8.122622 1.374380 -0.191474 10.153758 1.718354 -0.177460 8.122622 1.374380 -1.369243 18.155406 -5.155408 -0.281702 -6.469041 -5.198152 -1.218388 2.649808 -4.193448 9.716966 -1.187382 83.401478 65.853648 -7.763885 12.103286 -5.687424 -6.988876 -5.811010 16.840982 3.021690 0.084524 0.053340 -0.732064 -83.371108 -56.686128 -1.221531 -40.761505 -10.239869 1.194990 21.230292 -18.776697 -45.231844 13.104759 -122.532662 68.322332 -134.893391 -7.119400 -20.205991 7.556741 0.037603 0.083609 0.018901 17.896776 -47.615847 -10.050014 128.437046 66.318810 140.702950 -1.998279 -21.449611 -1.357168 -0.067272 -0.034000 -0.025363
